<svg width="215" height="55" viewBox="0 0 215 55" fill="none" xmlns="http://www.w3.org/2000/svg">
<g filter="url(#filter0_d_1_35)">
<path d="M47.4955 45.5486V15.9278H51.8125V18.9625H52.4964C53.0378 18.0222 53.8499 17.1816 54.9327 16.4407C56.044 15.6998 57.6255 15.3294 59.6772 15.3294C61.4439 15.3294 63.0538 15.7568 64.5071 16.6117C65.9889 17.4665 67.1714 18.7061 68.0548 20.3303C68.9666 21.926 69.4225 23.8637 69.4225 26.1433V26.7845C69.4225 29.0641 68.9809 31.016 68.0975 32.6402C67.2141 34.236 66.0316 35.4613 64.5498 36.3161C63.0681 37.171 61.4439 37.5984 59.6772 37.5984C58.3094 37.5984 57.1553 37.4274 56.215 37.0855C55.2747 36.7435 54.5195 36.3161 53.9496 35.8032C53.3797 35.2618 52.9238 34.7061 52.5819 34.1362H51.898V45.5486H47.4955ZM58.3949 33.7515C60.3326 33.7515 61.914 33.1389 63.1393 31.9136C64.3646 30.6883 64.9773 28.9359 64.9773 26.6562V26.2716C64.9773 24.0204 64.3504 22.2822 63.0966 21.0569C61.8713 19.8316 60.3041 19.219 58.3949 19.219C56.5142 19.219 54.947 19.8316 53.6932 21.0569C52.4679 22.2822 51.8552 24.0204 51.8552 26.2716V26.6562C51.8552 28.9359 52.4679 30.6883 53.6932 31.9136C54.947 33.1389 56.5142 33.7515 58.3949 33.7515ZM71.8856 37V15.9278H76.2026V18.4069H76.8865C77.2284 17.5235 77.7698 16.8824 78.5107 16.4834C79.2801 16.056 80.2204 15.8423 81.3317 15.8423H83.8536V19.8174H81.1608C79.736 19.8174 78.5677 20.2163 77.6559 21.0142C76.744 21.7836 76.2881 22.9804 76.2881 24.6046V37H71.8856ZM94.5453 37.5984C92.4366 37.5984 90.556 37.171 88.9032 36.3161C87.279 35.4328 85.9967 34.179 85.0564 32.5547C84.116 30.9305 83.6459 29.0071 83.6459 26.7845V26.1433C83.6459 23.9207 84.116 22.0115 85.0564 20.4158C85.9967 18.7916 87.279 17.5378 88.9032 16.6544C90.556 15.7711 92.4366 15.3294 94.5453 15.3294C96.6539 15.3294 98.5346 15.7711 100.187 16.6544C101.84 17.5378 103.137 18.7916 104.077 20.4158C105.017 22.0115 105.487 23.9207 105.487 26.1433V26.7845C105.487 29.0071 105.017 30.9305 104.077 32.5547C103.137 34.179 101.84 35.4328 100.187 36.3161C98.5346 37.171 96.6539 37.5984 94.5453 37.5984ZM94.5453 33.6661C96.483 33.6661 98.0502 33.0534 99.247 31.8281C100.472 30.5743 101.085 28.8504 101.085 26.6562V26.2716C101.085 24.0774 100.487 22.3677 99.2897 21.1424C98.0929 19.8886 96.5115 19.2617 94.5453 19.2617C92.6361 19.2617 91.0689 19.8886 89.8436 21.1424C88.6468 22.3677 88.0484 24.0774 88.0484 26.2716V26.6562C88.0484 28.8504 88.6468 30.5743 89.8436 31.8281C91.0689 33.0534 92.6361 33.6661 94.5453 33.6661ZM117.765 37.5984C115.741 37.5984 113.904 37.171 112.251 36.3161C110.627 35.4613 109.33 34.2217 108.361 32.5975C107.421 30.9733 106.951 29.0213 106.951 26.7417V26.1861C106.951 23.9065 107.421 21.9688 108.361 20.373C109.33 18.7488 110.627 17.5093 112.251 16.6544C113.904 15.7711 115.741 15.3294 117.765 15.3294C119.788 15.3294 121.512 15.6998 122.937 16.4407C124.361 17.1816 125.501 18.1647 126.356 19.39C127.239 20.6153 127.809 21.9688 128.066 23.4505L123.791 24.3481C123.649 23.4078 123.35 22.5529 122.894 21.7836C122.438 21.0142 121.797 20.4015 120.97 19.9456C120.144 19.4897 119.104 19.2617 117.85 19.2617C116.625 19.2617 115.514 19.5467 114.516 20.1166C113.547 20.658 112.778 21.4559 112.208 22.5102C111.638 23.536 111.353 24.7898 111.353 26.2716V26.6562C111.353 28.138 111.638 29.406 112.208 30.4603C112.778 31.5147 113.547 32.3125 114.516 32.8539C115.514 33.3954 116.625 33.6661 117.85 33.6661C119.702 33.6661 121.113 33.1959 122.082 32.2555C123.051 31.2867 123.663 30.0614 123.92 28.5797L128.194 29.5628C127.852 31.016 127.239 32.3553 126.356 33.5806C125.501 34.8059 124.361 35.789 122.937 36.5298C121.512 37.2422 119.788 37.5984 117.765 37.5984ZM139.939 37.5984C137.802 37.5984 135.936 37.1567 134.34 36.2734C132.744 35.3615 131.491 34.0935 130.579 32.4693C129.695 30.8165 129.254 28.9074 129.254 26.7417V26.2288C129.254 24.0347 129.695 22.1255 130.579 20.5013C131.462 18.8486 132.687 17.5805 134.255 16.6972C135.85 15.7853 137.688 15.3294 139.769 15.3294C141.792 15.3294 143.558 15.7853 145.069 16.6972C146.607 17.5805 147.804 18.8201 148.659 20.4158C149.514 22.0115 149.941 23.878 149.941 26.0151V27.6821H133.742C133.799 29.5343 134.411 31.016 135.58 32.1273C136.777 33.2101 138.258 33.7515 140.025 33.7515C141.678 33.7515 142.917 33.3811 143.744 32.6402C144.598 31.8994 145.254 31.0445 145.71 30.0757L149.343 31.9563C148.944 32.7542 148.36 33.5948 147.59 34.4782C146.85 35.3615 145.866 36.1024 144.641 36.7008C143.416 37.2992 141.849 37.5984 139.939 37.5984ZM133.785 24.3054H145.453C145.339 22.7097 144.769 21.4701 143.744 20.5868C142.718 19.6749 141.378 19.219 139.726 19.219C138.073 19.219 136.72 19.6749 135.665 20.5868C134.639 21.4701 134.012 22.7097 133.785 24.3054ZM160.968 37.5984C159.23 37.5984 157.62 37.171 156.138 36.3161C154.657 35.4613 153.46 34.236 152.548 32.6402C151.665 31.016 151.223 29.0641 151.223 26.7845V26.1433C151.223 23.8922 151.665 21.9545 152.548 20.3303C153.431 18.7061 154.614 17.4665 156.096 16.6117C157.577 15.7568 159.202 15.3294 160.968 15.3294C162.336 15.3294 163.476 15.5004 164.388 15.8423C165.328 16.1842 166.097 16.6259 166.696 17.1673C167.294 17.6802 167.75 18.2217 168.064 18.7916H168.747V7.08003H173.15V37H168.833V34.008H168.149C167.608 34.9198 166.781 35.7462 165.67 36.4871C164.587 37.228 163.02 37.5984 160.968 37.5984ZM162.208 33.7515C164.117 33.7515 165.684 33.1389 166.91 31.9136C168.163 30.6883 168.79 28.9359 168.79 26.6562V26.2716C168.79 24.0204 168.178 22.2822 166.952 21.0569C165.727 19.8316 164.146 19.219 162.208 19.219C160.327 19.219 158.76 19.8316 157.506 21.0569C156.281 22.2822 155.668 24.0204 155.668 26.2716V26.6562C155.668 28.9359 156.281 30.6883 157.506 31.9136C158.76 33.1389 160.327 33.7515 162.208 33.7515ZM186.299 37.5984C184.162 37.5984 182.295 37.1567 180.699 36.2734C179.104 35.3615 177.85 34.0935 176.938 32.4693C176.055 30.8165 175.613 28.9074 175.613 26.7417V26.2288C175.613 24.0347 176.055 22.1255 176.938 20.5013C177.821 18.8486 179.047 17.5805 180.614 16.6972C182.21 15.7853 184.048 15.3294 186.128 15.3294C188.151 15.3294 189.918 15.7853 191.428 16.6972C192.967 17.5805 194.163 18.8201 195.018 20.4158C195.873 22.0115 196.301 23.878 196.301 26.0151V27.6821H180.101C180.158 29.5343 180.771 31.016 181.939 32.1273C183.136 33.2101 184.618 33.7515 186.384 33.7515C188.037 33.7515 189.276 33.3811 190.103 32.6402C190.958 31.8994 191.613 31.0445 192.069 30.0757L195.702 31.9563C195.303 32.7542 194.719 33.5948 193.95 34.4782C193.209 35.3615 192.226 36.1024 191 36.7008C189.775 37.2992 188.208 37.5984 186.299 37.5984ZM180.144 24.3054H191.813C191.699 22.7097 191.129 21.4701 190.103 20.5868C189.077 19.6749 187.738 19.219 186.085 19.219C184.432 19.219 183.079 19.6749 182.024 20.5868C180.999 21.4701 180.372 22.7097 180.144 24.3054ZM198.608 37V15.9278H202.925V18.4069H203.609C203.951 17.5235 204.492 16.8824 205.233 16.4834C206.003 16.056 206.943 15.8423 208.054 15.8423H210.576V19.8174H207.883C206.458 19.8174 205.29 20.2163 204.378 21.0142C203.466 21.7836 203.011 22.9804 203.011 24.6046V37H198.608Z" fill="white"/>
<g clip-path="url(#clip0_1_35)">
<path d="M38.292 4.29077V4.29248H27.2738L27.2755 4.29077H38.292Z" fill="white"/>
<path d="M38.2912 4.29247V26.405L27.719 36.9299L27.21 37.4366H16.122V48.4717H4.99994V26.466L16.122 15.3936V35.252H27.1674V15.3648H5.00334L16.1271 4.29077H27.2747L27.273 4.29247H38.2912Z" fill="white"/>
</g>
</g>
<defs>
<filter id="filter0_d_1_35" x="0.712101" y="1.48073" width="214.152" height="52.7567" filterUnits="userSpaceOnUse" color-interpolation-filters="sRGB">
<feFlood flood-opacity="0" result="BackgroundImageFix"/>
<feColorMatrix in="SourceAlpha" type="matrix" values="0 0 0 0 0 0 0 0 0 0 0 0 0 0 0 0 0 0 127 0" result="hardAlpha"/>
<feOffset dy="1.47859"/>
<feGaussianBlur stdDeviation="2.14395"/>
<feComposite in2="hardAlpha" operator="out"/>
<feColorMatrix type="matrix" values="0 0 0 0 0 0 0 0 0 0 0 0 0 0 0 0 0 0 0.43 0"/>
<feBlend mode="normal" in2="BackgroundImageFix" result="effect1_dropShadow_1_35"/>
<feBlend mode="normal" in="SourceGraphic" in2="effect1_dropShadow_1_35" result="shape"/>
</filter>
<clipPath id="clip0_1_35">
<rect width="33.2913" height="44.1809" fill="white" transform="translate(5 4.29004)"/>
</clipPath>
</defs>
</svg>
